<?xml version="1.0" standalone="no"?><!DOCTYPE svg PUBLIC "-//W3C//DTD SVG 1.1//EN" "http://www.w3.org/Graphics/SVG/1.1/DTD/svg11.dtd"><svg t="1765098082329" class="icon" viewBox="0 0 1156 1024" version="1.1" xmlns="http://www.w3.org/2000/svg" p-id="6773" xmlns:xlink="http://www.w3.org/1999/xlink" width="18.0625" height="16"><path d="M1093.860207 540.871472c34.676456 0 62.411978-30.049167 62.411979-62.411978a62.143934 62.143934 0 0 0-62.411979-62.397871H613.101755a62.143934 62.143934 0 0 0-62.411979 62.397871 62.143934 62.143934 0 0 0 62.411979 62.411978zM728.657025 827.481271c-32.362812 0-60.098333 30.049167-60.098334 64.725623s27.735522 62.411978 60.098334 62.411978H1096.159745c34.662349 0 60.098333-27.735522 60.098333-62.411978 0-36.975993-27.735522-64.711515-60.098333-64.711515z m-140.991255-187.221827c-11.554116-13.881869-27.735522-18.495051-46.216465-18.495051a63.145573 63.145573 0 0 0-43.916928 18.495051L365.781594 792.847138V0.000578H240.957638v795.117882L109.206854 642.573089c-13.867761-13.867761-30.049167-20.808695-46.230572-20.808696s-32.362812 4.62729-43.916928 16.181406c-25.393662 25.393662-25.393662 64.725623 0 90.1475l238.079689 275.098006c13.867761 16.181406 30.049167 20.808695 48.544218 20.808695 13.867761 0 32.362812-6.926827 43.916927-18.480943L589.979415 728.093299c23.108232-23.108232 23.108232-62.411978-2.313645-87.833855zM1093.860207 124.824535a62.143934 62.143934 0 0 0 62.411979-62.411978A62.143934 62.143934 0 0 0 1093.860207 0.000578H613.101755a62.143934 62.143934 0 0 0-62.411979 62.411979 62.143934 62.143934 0 0 0 62.411979 62.411978z m0 0" fill="#ffffff" p-id="6774"></path></svg>